<?xml version="1.0" standalone="no"?>
<!DOCTYPE svg PUBLIC "-//W3C//DTD SVG 20010904//EN"
 "http://www.w3.org/TR/2001/REC-SVG-20010904/DTD/svg10.dtd">
<svg version="1.0" xmlns="http://www.w3.org/2000/svg"
 width="284.000000pt" height="284.000000pt" viewBox="0 0 284.000000 284.000000"
 preserveAspectRatio="xMidYMid meet">
<metadata>
Created by potrace 1.14, written by Peter Selinger 2001-2017
</metadata>
<g transform="translate(0.000000,284.000000) scale(0.100000,-0.100000)"
fill="#000000" stroke="none">
<path d="M110 1400 l0 -640 140 0 140 0 2 412 3 411 163 -411 163 -412 92 0
92 0 165 411 165 411 3 -411 2 -411 135 0 135 0 0 640 0 640 -172 -2 -172 -3
-175 -427 c-96 -236 -178 -425 -182 -420 -4 4 -84 197 -179 430 l-173 422
-173 0 -174 0 0 -640z"/>
<path d="M1730 1400 l0 -640 135 0 135 0 0 178 0 177 67 83 66 82 174 -260
173 -260 166 0 166 0 -19 28 c-10 16 -116 172 -235 348 -120 175 -218 324
-218 329 0 6 102 133 227 284 126 151 230 278 231 283 2 4 -71 8 -161 8 l-165
0 -228 -280 c-126 -154 -232 -280 -236 -280 -5 0 -8 126 -8 280 l0 280 -135 0
-135 0 0 -640z"/>
</g>
</svg>
